<?xml version="1.0" standalone="no"?>
<!DOCTYPE svg PUBLIC "-//W3C//DTD SVG 20010904//EN"
 "http://www.w3.org/TR/2001/REC-SVG-20010904/DTD/svg10.dtd">
<svg version="1.0" xmlns="http://www.w3.org/2000/svg"
 width="512.000000pt" height="512.000000pt" viewBox="0 0 512.000000 512.000000"
 preserveAspectRatio="xMidYMid meet">
<metadata>
Created by potrace 1.14, written by Peter Selinger 2001-2017
</metadata>
<g transform="translate(0.000000,512.000000) scale(0.100000,-0.100000)"
fill="#000000" stroke="none">
<path d="M410 2560 l0 -1410 425 0 425 0 0 175 0 175 -235 0 -235 0 0 1060 0
1060 235 0 235 0 0 175 0 175 -425 0 -425 0 0 -1410z"/>
<path d="M3860 3795 l0 -175 235 0 235 0 0 -1060 0 -1060 -235 0 -235 0 0
-175 0 -175 425 0 425 0 0 1410 0 1410 -425 0 -425 0 0 -175z"/>
<path d="M1792 3503 l3 -168 288 -3 287 -2 0 -925 0 -925 190 0 190 0 0 925 0
925 288 2 287 3 3 168 2 167 -770 0 -770 0 2 -167z"/>
</g>
</svg>
